<?xml version="1.0" standalone="no"?>
<!DOCTYPE svg PUBLIC "-//W3C//DTD SVG 20010904//EN"
 "http://www.w3.org/TR/2001/REC-SVG-20010904/DTD/svg10.dtd">
<svg version="1.0" xmlns="http://www.w3.org/2000/svg"
 width="700.000000pt" height="700.000000pt" viewBox="0 0 700.000000 700.000000"
 preserveAspectRatio="xMidYMid meet">
<metadata>
Created by potrace 1.14, written by Peter Selinger 2001-2017
</metadata>
<g transform="translate(0.000000,700.000000) scale(0.100000,-0.100000)"
fill="#000000" stroke="none">
<path d="M3860 6289 c-61 -19 -126 -73 -156 -131 -12 -23 -39 -141 -49 -213
-1 -11 -7 -47 -13 -80 -6 -33 -14 -76 -17 -95 -3 -19 -12 -73 -21 -120 -9 -46
-18 -100 -20 -120 -2 -19 -16 -96 -29 -170 -28 -154 -25 -136 -65 -375 -27
-160 -59 -345 -75 -430 -3 -16 -8 -46 -11 -65 -2 -19 -11 -71 -19 -115 -8 -44
-17 -93 -20 -110 -3 -16 -7 -41 -10 -55 -11 -63 -76 -449 -81 -480 -2 -19 -6
-42 -9 -50 -4 -15 -6 -25 -25 -140 -5 -36 -12 -76 -15 -90 -18 -104 -38 -220
-41 -244 -2 -16 -11 -66 -19 -110 -8 -45 -17 -94 -20 -111 -2 -16 -7 -41 -10
-55 -7 -39 -33 -189 -41 -245 -3 -16 -9 -52 -15 -80 -16 -85 -17 -92 -25 -142
-3 -26 -8 -57 -10 -68 -2 -11 -7 -33 -9 -50 -3 -16 -12 -66 -20 -110 -7 -44
-16 -98 -20 -120 -3 -22 -7 -47 -10 -55 -2 -8 -6 -33 -10 -55 -3 -22 -17 -105
-31 -185 -14 -80 -27 -158 -30 -175 -3 -16 -11 -66 -19 -110 -8 -44 -17 -96
-20 -115 -3 -19 -15 -87 -26 -150 -25 -140 -27 -153 -36 -210 -5 -25 -8 -72
-7 -105 1 -142 125 -257 270 -249 65 3 112 23 162 68 59 53 76 100 111 306 18
102 34 196 37 210 8 46 26 155 30 185 3 17 7 41 10 55 3 14 8 39 10 55 3 17
12 68 20 115 9 47 17 96 19 110 2 14 11 68 20 120 10 52 19 104 20 115 2 11 8
49 15 85 7 36 14 79 16 95 3 17 9 53 14 80 5 28 12 66 15 85 6 38 23 132 29
166 2 12 7 39 10 60 6 36 20 119 30 169 2 11 7 40 11 65 4 25 9 52 10 61 2 9
6 34 9 55 8 46 45 263 51 294 6 31 43 248 51 294 3 21 8 48 10 60 2 11 9 48
14 81 5 33 12 69 14 80 3 18 11 61 22 135 3 14 11 61 19 105 8 44 16 94 19
110 3 17 14 84 26 150 11 66 36 212 56 325 19 113 39 228 44 255 5 28 11 64
14 80 3 17 9 55 15 85 15 83 17 100 51 300 17 102 33 196 36 210 11 70 57 328
60 345 25 126 27 186 11 237 -34 107 -122 178 -230 184 -34 2 -78 -1 -97 -7z"/>
<path d="M1925 5234 c-47 -14 -105 -70 -842 -807 -776 -777 -792 -793 -807
-847 -16 -57 -14 -118 5 -179 9 -28 192 -217 792 -818 846 -847 819 -823 930
-824 103 -1 206 66 245 160 27 66 24 154 -8 215 -18 33 -218 239 -685 706
l-660 660 671 672 c567 568 674 680 688 718 78 214 -111 412 -329 344z"/>
<path d="M4873 5220 c-97 -49 -146 -129 -145 -237 0 -41 8 -75 22 -105 15 -30
227 -249 688 -710 l667 -668 -672 -672 c-668 -669 -672 -673 -688 -731 -62
-216 148 -405 353 -317 40 17 182 155 824 798 567 567 781 788 793 817 24 55
23 158 -1 213 -27 60 -1548 1582 -1614 1614 -26 13 -70 24 -105 26 -51 3 -69
-1 -122 -28z"/>
</g>
</svg>
